<?xml version="1.0" encoding="UTF-8"?>
<svg id="Layer_2" data-name="Layer 2" xmlns="http://www.w3.org/2000/svg" viewBox="0 0 160.08 160.01">
  <defs>
    <style>
      .cls-1 {
        fill: #2f90ce;
      }

      .cls-2 {
        fill: #32bedd;
      }

      .cls-3 {
        fill: #69c6d3;
      }

      .cls-4 {
        fill: #f3f2f2;
      }

      .cls-5 {
        fill: #347abe;
      }

      .cls-6 {
        fill: #306cbd;
      }

      .cls-7 {
        fill: #0c0c0c;
      }

      .cls-8 {
        fill: #f0f0f0;
      }

      .cls-9 {
        fill: #3379c5;
      }

      .cls-10 {
        fill: #40c8f0;
      }

      .cls-11 {
        fill: #090909;
      }

      .cls-12 {
        fill: #2f81cc;
      }

      .cls-13 {
        fill: #33c3dd;
      }

      .cls-14 {
        fill: #3086cc;
      }

      .cls-15 {
        fill: #040303;
      }

      .cls-16 {
        fill: #2fa2cf;
      }

      .cls-17 {
        fill: #f5f4f4;
      }

      .cls-18 {
        fill: #307dca;
      }

      .cls-19 {
        fill: #efefef;
      }

      .cls-20 {
        fill: #3088cc;
      }

      .cls-21 {
        fill: #f2f1f1;
      }

      .cls-22 {
        fill: #45b1d7;
      }

      .cls-23 {
        fill: #32cae0;
      }

      .cls-24 {
        fill: #2e97d0;
      }

      .cls-25 {
        fill: #2f87c7;
      }

      .cls-26 {
        fill: #fefefe;
      }

      .cls-27 {
        fill: #ededed;
      }

      .cls-28 {
        fill: #070707;
      }

      .cls-29 {
        fill: #4777a6;
      }

      .cls-30 {
        fill: #2dacd6;
      }
    </style>
  </defs>
  <g id="Layer_1-2" data-name="Layer 1">
    <path class="cls-15" d="M159.92,0v160.01H0V0h159.92ZM81.86,51.41l-.03,2.34v1.25s.02,2.06.02,2.06v1.7s0,1.25,0,1.25l-.02,2.85v15.53s7.18-7.28,7.18-7.28l.18-.19-.17-15.78c-2.03-2.13-4.13-4.23-6.3-6.21l-.88-.8v3.28ZM59.33,67.46l9.69.03,1.6-.05c.14,0,.35-.18.44-.27.19-.16.53-.41.75-.62l5.47-5.47.5-.56c.08-.09.2-.23.3-.35l-26.15.02,6.55,6.64c.25.25.52.47.86.64ZM104.03,73.13l3.32,3.35,2.05-2.04,1.63-1.6v-6.47s-6.23-6.07-6.23-6.07l-.32-.16-12.33.02.02,7.32,11.7.02v5.46s.17.16.17.16ZM54.63,80.64c.32.44.72.86,1.24,1.39l14.71.02.04,5.89.6.51,4.06,4.05,2.61,2.46c.35-1.33.11-2.47.1-3.7l-.05-9.39c-2.43-2.31-4.6-4.77-7.05-6.88l-.06-.13-14.65-.02.04-5.68c0-.13-.15-.44-.15-.4,0-.1-.1-.26-.17-.33-1.66-1.9-4.88-5.14-7.02-6.93v13.48c.96,1.08,1.95,2.01,2.96,2.99l2.77,2.68ZM83.36,80.93c-.49.37-.96.82-1.49,1.32l.04,12.97,1.76-1.65,1.91-1.86.95-.93,2.77-2.82.02-5.92h12.2s3.65-3.62,3.65-3.62l-3.65-3.63-12.14.05-2.22,2.21-2.9,2.89c-.3.3-.78.63-.92.98ZM104.03,83.75c-.38,1.77-.07,3.71-.2,5.61l-1.71.15-10.33.02-7.29,7.3,20.26.04c.66-.62,1.21-1.16,1.72-1.86.43-.35,1.21-1.1,1.6-1.57l.64-.66c.7-.71,1.61-1.38,2.33-2.15l-.04-6.48-3.79-3.68-3.2,3.27ZM51.23,94.38c-.78.8-1.74,1.42-2.43,2.48l21.16.02c1.37,0,3.76.03,5-.12l.25-.03c.08,0-.03-.24-.1-.3l-.79-.68c-.22-.35-.49-.69-.82-1.02l-2.2-2.16-3.1-3.04h-12.21s-4.75,4.84-4.75,4.84ZM54.92,109.54c.14-1.66.09-3.23.05-4.73-.29-.48-1.04-1.36-1.56-1.38-1.6-.08-2.97-.06-4.52-.05v7.71c1.44.04,3,.07,4.31-.07.58-.06,1.67-.93,1.72-1.48ZM61.28,107.91v-1.37s-2.96-.03-2.96-.03v-1.7s3.47-.04,3.47-.04l-.06-1.4h-5.08s-.02,7.73-.02,7.73l5.17.04.04-1.36-3.54-.03.02-1.82,2.96-.02ZM68.04,103.36l-1.71,5.84-1.84-5.84-1.69.02,2.5,7.77,2.05-.03,2.46-7.76h-1.77ZM77.92,111.12c.43,0,1.22-.68,1.22-1.1l.04-2.39c0-.57-.54-1.05-1.08-1.06l-2.93-.03c-.09-.64-.1-1.19.03-1.76l3.67-.03-.06-1.39-4.22.03c-.31,0-.92.58-.96.9-.08.68-.1,1.94-.02,2.69.08.71.8.97,1.32.97h2.59s0,1.77,0,1.77l-3.96.04.03,1.37h4.33ZM83.98,111.06l-.02-6.24,2.15-.06-.1-1.38h-5.77s.02,1.4.02,1.4l2.06.05.05,6.25,1.61-.02ZM91.84,103.4v5.63c0,1.11-2.45.82-2.85.34l-.07-5.97h-1.62s.03,6.29.03,6.29c.38.4.93,1.19,1.42,1.31,1.07.25,2.14.22,3.25.05.53-.08,1.22-.88,1.47-1.37v-6.28s-1.62,0-1.62,0ZM101.44,109.6l-.08-5.05c-.43-.4-1.1-1-1.56-1.17h-4.53s0,7.74,0,7.74c1.54,0,2.88,0,4.4-.07.68-.04,1.31-.96,1.78-1.45ZM104.8,111.07l-.04-7.69h-1.58s.02,7.69.02,7.69h1.61ZM111.41,111.01c.53-.09,1.11-.89,1.35-1.32l-.03-4.97c-.32-.43-.95-1.21-1.42-1.26-1.11-.13-2.23-.13-3.34.01-.49.06-1.26.9-1.45,1.38-.06,1.56-.1,3.19,0,4.78.04.54,1.01,1.35,1.56,1.42.99.12,2.21.16,3.32-.03Z"/>
    <rect class="cls-26" x="159.92" width=".16" height="160.01"/>
    <path class="cls-1" d="M86.53,90.79l-.27-.11s.01-.27-.03-.3l-.5-.33c-.29.25-.59.44-.78.36-.24-.1-.46-.43-.47-.66l-.09-2.03c-.05-.1-.18-.35-.23-.44l-.41-1.52c-.17-.62-.58-1.02-1.28-1.07l-.02-2.12c.89-.1,1.65-.59,2.05-1.54l-.55-.05c-.2.39-.41.63-.81.84.08-.39.14-.68.22-.88.14-.34.62-.68.92-.98l2.9-2.89,2.22-2.21,12.14-.05,3.65,3.63-3.65,3.61h-12.2s-.02,5.92-.02,5.92l-2.77,2.82Z"/>
    <path class="cls-24" d="M104.8,60.31l6.25,6.07v6.47s-1.65,1.6-1.65,1.6l-2.05,2.04-3.32-3.35-.02-5.74c-.28-.06-.73-.19-.94-.19h-7.44c.04-.73.11-1.4.1-2.07l-.08-4.81h9.13Z"/>
    <path class="cls-14" d="M70.9,74.99c2.46,2.11,4.62,4.57,7.05,6.88l.05,9.39c0,1.23.25,2.37-.1,3.7l-2.61-2.46-4.06-4.05c.07-.27-.28-.82-.29-1.12l-.07-5.41-6.39-.06.31-.58-3.18-.14c.74-.31,1.41-.14,2.09-.18.11-.52.5-.65.89-.92.46-.4.3-1.7-.18-2.07-.26-.2-.61-.48-.62-.69s.4-.49.59-.64l1.08-.82.09-.77,5.35-.05Z"/>
    <path class="cls-30" d="M74.32,95.76v.23s.32.21.32.21c.05.03-.02.38-.31.38-7.1,0-16.35,0-24.11,0-.26,0-.34-.46-.23-.51.76-.41.82-.82,1.24-1.68l4.75-4.85h12.21s3.1,3.06,3.1,3.06l2.2,2.16c.33.32.61.66.82,1.02Z"/>
    <path class="cls-23" d="M89.03,55.14l-.05,14.59c-.2-.03-.29.29-.46.66-.11.23-.72-.2-.84-.34-.39.37-1,.57-1.52.58-.38.01-1.05-.36-1.17-.75l-.44-1.36c-.32-.99-.1-2.26-.54-3.21-.88-1.86-.63-2.08-.97-2.84-.29-.66-.63-1.37-.51-2.12.03-.2-.5-.36-.67-.33v-1.25c.69.03.23-1.27.21-1.39l.29.1s.05-.3,0-.31l-.51-.11-.02-2.06c.11,0,.31,0,.31-.1v-.53s0-.52,0-.52c0-.09-.2-.1-.31-.1l.03-2.34c.45-.15.63-.08,1.31.07l-.53-1c.15-.11.52-.45.42-.6-.18-.25-.4-.69-.32-.95,2.17,1.98,4.27,4.08,6.3,6.21Z"/>
    <path class="cls-9" d="M55.92,68.42l.07,6.06c.09-1.44.08-4.28.1-5.73,0-.04.15.26.15.4l-.04,5.68,14.65.02.06.13-5.35.05-7.29-.04.09.68c0,.06-1.79,1.79-2.24,2.04l-.15,1.57c-.02.2-.05.56.01.7.07.18.46.28.68.34l.41.1c.09.02.15.42.06.43l-.59.11c-.08.01-.41-.05-.5-.07-.11-.02,0-.26.03-.47-.33-.17-.99-.27-1.1.16l-.33.04-2.77-2.68c-1.02-.98-2-1.91-2.97-2.99v-13.48c2.14,1.79,5.37,5.03,7.02,6.93ZM54.85,78.71c.05-.11.07-.47-.02-.56l-.6-.65c-.07-.08-.51.14-.44.21l.26.24.81.76Z"/>
    <path class="cls-2" d="M76.53,60.32c.13.08.39.21.54.26.12.04.32-.18.4-.26.1,0,.27.12.31.19l-.5.56-5.47,5.47c-.21.21-.55.46-.75.62-.43-.21-.75-.05-1.22,0-1.25.11-2.46-.02-3.61,0-.04-.22-.17-.52-.34-.73-1.48-1.83-2.9-3.61-4.56-5.25-.23-.23-.42-.4-.46-.65,4.19-.1,11.52.08,15.34-.19.08,0,.23,0,.31,0Z"/>
    <path class="cls-20" d="M108.73,92.8c.07-.16,0-.47-.13-.67-.09-.13-.41-.28-.56-.29-.12,0-.32.28-.27.39l.24.47-.24.53c-.04.09.25.2.32.22-.39.48-1.17,1.22-1.6,1.57l-.15-.03c.03-.54.49-.82,1.05-1.05.25-.1.2-.81,0-1.02-.19-.19-.75-.19-1.08-.16-.71.06-.94-.74-1.09-1.29l-.36-1.39c-.47-.1-1.14-.1-1.48-.36.23.04.62-.23.62-.51l.03-5.47,3.2-3.27,3.79,3.68.04,6.48c-.72.77-1.63,1.44-2.33,2.15Z"/>
    <path class="cls-16" d="M77.77,60.51c-.04-.07-.21-.19-.31-.19h-.94c-.08,0-.23,0-.31,0h-16.26c.33.13.67.2.91.19.04.25.22.42.46.65,1.66,1.64,3.08,3.42,4.56,5.25.17.21.3.52.34.73l-6.37.07c-.14,0-.53.2-.53.24-.34-.17-.61-.39-.86-.64l-6.55-6.64,26.15-.02c-.1.12-.21.25-.3.35Z"/>
    <path class="cls-6" d="M103.38,89.73l-7.66-.04v7.02s6.4-.04,6.4-.04c.68,0,1.33-.12,2.05-.08,1.74.1.29-1.01,2.16-1.6l.15.03c-.51.7-1.06,1.24-1.72,1.86l-20.26-.04,7.29-7.3,10.33-.02,1.71-.15c.13-1.9-.18-3.84.2-5.61l-.03,5.47c0,.28-.39.55-.62.51Z"/>
    <path class="cls-13" d="M88.98,69.73l.04,1.38-7.19,7.28v-15.53s.02-2.85.02-2.85c.17-.03.7.13.67.33-.12.75.21,1.46.51,2.12.34.76.09.99.97,2.84.45.95.22,2.21.54,3.21l.44,1.36c.12.39.79.76,1.17.75.52-.01,1.13-.21,1.52-.58.12.14.74.58.84.34.17-.37.26-.68.46-.66Z"/>
    <path class="cls-8" d="M54.92,109.54c-.05.55-1.13,1.42-1.72,1.48-1.31.14-2.87.11-4.31.07v-7.71c1.56-.01,2.92-.03,4.52.05.52.02,1.27.91,1.56,1.38.04,1.5.09,3.06-.05,4.73ZM53.35,108.92v-3.43c0-.33-.52-.74-.83-.72l-1.99.09v4.86s2.13.02,2.13.02c.28,0,.69-.5.69-.82Z"/>
    <path class="cls-17" d="M101.44,109.6c-.47.49-1.1,1.41-1.78,1.45-1.52.08-2.86.07-4.4.07v-7.75s4.54,0,4.54,0c.46.17,1.12.77,1.56,1.17l.08,5.05ZM99.79,108.88v-3.29c0-.36-.35-.81-.74-.8l-2.17.03.02,4.91h2.17c.31,0,.72-.49.72-.85Z"/>
    <path class="cls-21" d="M111.41,111.01c-1.11.18-2.33.14-3.32.03-.54-.07-1.52-.88-1.56-1.42-.11-1.58-.07-3.22,0-4.78.19-.48.95-1.32,1.45-1.38,1.1-.14,2.22-.14,3.34-.01.48.05,1.1.83,1.42,1.26l.03,4.97c-.24.43-.82,1.24-1.35,1.32ZM111.08,109.54l.05-3.95c0-.33-.36-.78-.67-.78h-1.65c-.27-.01-.7.34-.7.67l-.03,3.42c-.01,1.27,2.16.91,3,.64Z"/>
    <path class="cls-5" d="M104.8,60.31h-9.13s.08,4.82.08,4.82c.01.66-.06,1.33-.1,2.06h7.44c.2.01.66.15.94.21l.02,5.74-.18-.16v-5.46s-11.69-.02-11.69-.02l-.02-7.32,12.33-.02.32.16Z"/>
    <polygon class="cls-4" points="61.28 107.91 58.32 107.93 58.3 109.75 61.84 109.78 61.8 111.14 56.63 111.1 56.65 103.37 61.73 103.37 61.79 104.77 58.31 104.81 58.32 106.51 61.28 106.54 61.28 107.91"/>
    <path class="cls-4" d="M91.84,103.4h1.63s0,6.27,0,6.27c-.25.49-.94,1.29-1.47,1.37-1.11.17-2.17.2-3.25-.05-.49-.12-1.04-.91-1.42-1.31l-.03-6.29h1.62s.07,5.98.07,5.98c.4.48,2.85.78,2.85-.34v-5.63Z"/>
    <path class="cls-25" d="M83.36,80.93c-.08.19-.13.49-.22.88.4-.21.61-.45.81-.84l.55.05c-.4.96-1.16,1.44-2.05,1.54l.02,2.12c.71.05,1.12.45,1.28,1.07l.41,1.52c.05.09.18.34.23.44l.09,2.03c0,.23.23.57.47.66.19.08.49-.11.78-.36l.5.33s-.02.28.03.3l.27.11-.95.93-1.91,1.86-1.76,1.65-.04-12.97c.52-.5,1-.95,1.49-1.32Z"/>
    <path class="cls-4" d="M77.92,111.12h-4.33s-.03-1.37-.03-1.37l3.96-.04v-1.78s-2.59.01-2.59.01c-.53,0-1.24-.26-1.32-.97-.08-.75-.06-2.01.02-2.69.04-.32.65-.9.96-.9l4.22-.03.06,1.39-3.67.03c-.13.57-.12,1.12-.03,1.76l2.93.03c.54,0,1.09.49,1.08,1.06l-.04,2.39c0,.41-.79,1.1-1.22,1.1Z"/>
    <polygon class="cls-19" points="68.04 103.36 69.8 103.36 67.35 111.12 65.29 111.15 62.8 103.38 64.49 103.37 66.33 109.21 68.04 103.36"/>
    <polygon class="cls-27" points="83.98 111.06 82.36 111.08 82.31 104.83 80.25 104.78 80.23 103.38 86.01 103.38 86.11 104.76 83.96 104.82 83.98 111.06"/>
    <polygon class="cls-4" points="104.8 111.07 103.19 111.07 103.17 103.39 104.76 103.39 104.8 111.07"/>
    <path class="cls-22" d="M74.32,95.76l.79.68c.07.06.18.29.1.3l-.25.03-4.74-.04c-.06,0-.35.2-.26.17l-21.16-.02c.69-1.06,1.65-1.68,2.43-2.48-.43.86-.49,1.27-1.24,1.68-.11.06-.03.51.23.51,7.77,0,17.01,0,24.11,0,.29,0,.36-.35.31-.38l-.33-.21v-.23Z"/>
    <path class="cls-29" d="M54.97,80.6c.21.34.64.8.97,1.14.1-.03.44.12.61.12h6.23s1.09.01,1.09.01l.6-.02,6.39.06.07,5.41c0,.3.36.85.29,1.12l-.6-.51-.04-5.89-14.71-.02c-.51-.52-.92-.95-1.24-1.39l.33-.04Z"/>
    <path class="cls-22" d="M71.06,67.16c-.09.1-.29.27-.44.27l-1.6.05-9.69-.03s.39-.24.53-.24l6.37-.07c1.15-.01,2.36.11,3.61,0,.47-.04.78-.2,1.22,0Z"/>
    <path class="cls-13" d="M82.73,48.93c-.07.26.15.7.32.95.1.15-.27.49-.42.6l.53,1c-.68-.16-.86-.23-1.31-.07v-3.28s.87.8.87.8Z"/>
    <polygon class="cls-3" points="89.02 71.11 88.98 69.73 89.03 55.14 89.2 70.92 89.02 71.11"/>
    <path class="cls-18" d="M108.73,92.8l-.64.66c-.07-.02-.37-.13-.32-.22l.24-.53-.24-.47c-.05-.11.15-.4.27-.39.15,0,.47.16.56.29.14.19.2.51.13.67Z"/>
    <path class="cls-29" d="M56.09,68.75c-.02,1.45,0,4.29-.1,5.73l-.07-6.06c.06.07.17.24.17.33Z"/>
    <path class="cls-30" d="M74.96,96.76c-1.24.15-3.63.12-5,.12-.08.03.2-.17.26-.17l4.74.04Z"/>
    <path class="cls-13" d="M81.86,58.76v-1.7s.51.11.51.11c.05,0,.04.32,0,.31l-.29-.1c.02.12.47,1.41-.21,1.39Z"/>
    <path class="cls-13" d="M81.83,55v-1.25c.11,0,.31.01.31.1v.52s0,.53,0,.53c0,.1-.2.1-.31.1Z"/>
    <path class="cls-12" d="M65.55,75.04l-.09.77-1.08.82c-.19.15-.6.42-.59.64s.36.49.62.69c.48.38.65,1.68.18,2.07-.39.27-.79.4-.89.92-.68.04-1.35-.13-2.09.18l3.18.14-.31.58-.6.02c0-.11,0-.31-.1-.31h-.53s-.37,0-.37,0c-.09,0-.09.21-.1.31h-6.23c-.18-.01-.52-.17-.61-.14-.33-.34-.76-.8-.97-1.14.11-.43.77-.33,1.1-.16-.04.21-.14.45-.03.47.1.02.42.08.5.07l.59-.11c.09-.02.04-.41-.06-.43l-.41-.1c-.22-.05-.61-.16-.68-.34-.06-.15-.03-.5-.01-.7l.15-1.57c.45-.24,2.24-1.98,2.24-2.04l-.09-.68,7.29.04Z"/>
    <path class="cls-12" d="M54.85,78.71l-.81-.76-.26-.24c-.08-.07.36-.29.44-.21l.6.65c.09.1.07.45.02.56Z"/>
    <path class="cls-10" d="M76.21,60.32c-3.83.27-11.16.1-15.34.19-.25,0-.59-.06-.91-.18h16.26Z"/>
    <path class="cls-10" d="M77.46,60.32c-.07.09-.28.31-.4.26-.15-.06-.41-.19-.54-.26h.94Z"/>
    <path class="cls-18" d="M103.38,89.73c.34.25,1.01.25,1.48.36l.36,1.39c.14.55.38,1.34,1.09,1.29.33-.03.89-.03,1.08.16.21.21.25.91,0,1.02-.56.23-1.02.52-1.05,1.05-1.88.59-.42,1.7-2.16,1.6-.72-.04-1.36.08-2.05.08l-6.41.04v-7.02s7.67.04,7.67.04Z"/>
    <path class="cls-28" d="M53.35,108.92c0,.32-.41.82-.69.82l-2.12-.02v-4.86s1.98-.09,1.98-.09c.31-.01.83.39.83.72v3.43Z"/>
    <path class="cls-7" d="M99.79,108.88c0,.36-.41.86-.72.86h-2.17s-.02-4.91-.02-4.91l2.17-.03c.39,0,.75.44.75.8v3.29Z"/>
    <path class="cls-11" d="M111.08,109.54c-.85.28-3.02.63-3-.64l.03-3.42c0-.33.43-.68.7-.68h1.65c.31.01.68.45.67.79l-.05,3.95Z"/>
    <path class="cls-14" d="M63.88,81.88h-1.09c0-.1,0-.31.1-.31h.37s.53,0,.53,0c.09,0,.09.2.1.31Z"/>
  </g>
</svg>